<svg xmlns="http://www.w3.org/2000/svg" version="1.1" xmlns:xlink="http://www.w3.org/1999/xlink" xmlns:svgjs="http://svgjs.com/svgjs" width="577" height="1000" preserveAspectRatio="none" viewBox="0 0 577 1000"><g mask="url(&quot;#SvgjsMask1158&quot;)" fill="none"><rect width="577" height="1000" x="0" y="0" fill="rgba(215, 215, 223, 1)"></rect><path d="M0,275.388C50.619,272.583,90.71,233.771,128.563,200.047C161.815,170.423,183.075,132.447,204.355,93.326C227.242,51.252,254.462,10.772,257.523,-37.026C260.997,-91.275,255.594,-149.692,222.686,-192.959C189.112,-237.101,131.898,-252.622,79.571,-270.994C24.605,-290.292,-34.605,-323.763,-88.766,-302.31C-142.831,-280.894,-155.529,-211.424,-189.667,-164.347C-220.22,-122.214,-263.274,-89.743,-278.906,-40.101C-296.165,14.709,-309.755,78.473,-281.966,128.77C-254.378,178.702,-188.671,188.504,-138.058,214.822C-92.551,238.485,-51.213,278.226,0,275.388" fill="#c4c4cf"></path><path d="M577 1379.939C648.046 1378.784 711.499 1340.663 770.205 1300.633 827.615 1261.4859999999999 884.765 1216.8609999999999 910.7 1152.396 936.14 1089.162 931.01 1017.04 910.441 952.058 891.694 892.832 835.592 857.499 801.019 805.887 759.962 744.595 758.4929999999999 643.611 688.405 620.5899999999999 618.873 597.751 553.324 667.023 490.008 703.731 440.173 732.623 402.089 772.79 359.32 811.379 309.716 856.135 229.798 882.601 218.73700000000002 948.49 207.70600000000002 1014.198 279.659 1062.547 306.952 1123.327 334.483 1184.6390000000001 330.993 1260.686 379.714 1306.983 431.591 1356.279 505.445 1381.103 577 1379.939" fill="#ebebef"></path></g><defs><mask id="SvgjsMask1158"><rect width="577" height="1000" fill="#ffffff"></rect></mask></defs></svg>