<svg xmlns="http://www.w3.org/2000/svg" version="1.1" xmlns:xlink="http://www.w3.org/1999/xlink" xmlns:svgjs="http://svgjs.com/svgjs" width="1440" height="560" preserveAspectRatio="none" viewBox="0 0 1440 560"><g mask="url(&quot;#SvgjsMask1086&quot;)" fill="none"><rect width="1440" height="560" x="0" y="0" fill="rgba(215, 215, 223, 1)"></rect><path d="M0,551.374C119.417,571.326,248.955,610.56,355.853,553.717C464.235,496.085,506.691,366.345,557.826,254.751C609.022,143.025,672.84,27.388,652.573,-93.826C632.444,-214.217,550.149,-320.129,450.031,-389.954C359.897,-452.816,242.689,-440.938,133.787,-455.638C42.102,-468.014,-47.138,-487.735,-137.8,-469.302C-234.403,-449.661,-335.6,-421.237,-400.477,-347.016C-465.448,-272.687,-453.86,-163.049,-486.832,-69.996C-530.119,52.166,-671.306,164.343,-624.495,285.198C-578.52,403.894,-403.938,396.425,-286.842,446.335C-191.236,487.085,-102.507,534.247,0,551.374" fill="#babac8"></path><path d="M1440 884.348C1523.807 902.316 1605.741 973.572 1685.309 941.7080000000001 1763.54 910.38 1785.6779999999999 810.469 1818.407 732.813 1850.2649999999999 657.224 1886.481 578.64 1872.385 497.832 1858.444 417.91700000000003 1793.299 361.128 1742.531 297.855 1689.65 231.949 1652.427 134.598 1569.203 119.97399999999999 1485.084 105.19299999999998 1419.023 189.849 1342.381 227.54000000000002 1280.745 257.851 1204.811 265.467 1162.8220000000001 319.824 1121.483 373.34000000000003 1129.022 446.98900000000003 1120.995 514.134 1113.173 579.564 1092.117 646.522 1116.442 707.764 1141.2350000000001 770.185 1195.148 817.0840000000001 1254.104 849.26 1310.601 880.094 1377.067 870.856 1440 884.348" fill="#f4f4f6"></path></g><defs><mask id="SvgjsMask1086"><rect width="1440" height="560" fill="#ffffff"></rect></mask></defs></svg>