<svg xmlns="http://www.w3.org/2000/svg" xmlns:xlink="http://www.w3.org/1999/xlink" width="1920.34" height="4484.672" viewBox="0 0 1920.34 4484.672">
  <defs>
    <linearGradient id="linear-gradient" x1="-0.106" y1="-1.042" x2="1.106" y2="-1.042" gradientUnits="objectBoundingBox">
      <stop offset="0" stop-color="#002e89"/>
      <stop offset="1" stop-color="#05f"/>
    </linearGradient>
  </defs>
  <g id="BG_Svg" data-name="BG Svg" transform="translate(0.34 0)">
    <circle id="Ellipse_8" data-name="Ellipse 8" cx="14" cy="14" r="14" transform="translate(1425.332 3510.148) rotate(120)" fill="url(#linear-gradient)"/>
    <circle id="ellipse" cx="29" cy="29" r="29" transform="translate(267 4201)" fill="url(#linear-gradient)"/>
    <g id="Group_89" data-name="Group 89" transform="translate(1166.597 4713.506) rotate(90)">
      <path id="Path_131" data-name="Path 131" d="M-228.833,1166.937a402.067,402.067,0,0,0-32.251-48.683l-.025-.1a403.79,403.79,0,0,0-118.476-103.795c-11.475-6.632-23.424-12.735-35.656-18.357a407.824,407.824,0,0,0-106.375-31.778l-.095.024a406.971,406.971,0,0,0-218.02,26.79l-.095.024a402.213,402.213,0,0,0-160.86,121.272c-7.111,8.759-13.788,18.019-20.2,27.517-3.1,4.568-5.984,9.183-8.844,13.894q-4.007,6.481-7.776,13.188Z" fill="url(#linear-gradient)"/>
      <path id="Path_132" data-name="Path 132" d="M-524.272,1166.937c3.6-5.414,7.136-10.887,10.846-16.169,12.481-17.77,29.711-34.873,51.373-36.127,19.26-1.176,36.629,10.538,53.351,20.082,39.22,22.366,91.5,34.094,127.272,6.742a81.823,81.823,0,0,0,20.327-23.2l-.021-.084a402.839,402.839,0,0,0-118.49-103.828c-16.688,10.133-37.917,13.073-57.844,12.353-25.177-.9-50.116-6.8-75.41-6.411-25.211.369-52.244,8.307-66.983,28.814-14.343,19.956-14.088,47.126-25.657,68.8-17.77,33.151-58.978,45.992-96.514,47.282-37.515,1.374-75.552-5.566-112.416,1.483-.445.086-.89.18-1.335.27Z" fill="#1a60e3" opacity="0.403"/>
      <path id="Path_133" data-name="Path 133" d="M-929.758,1153.708q4.251-7.026,8.82-13.863a422.664,422.664,0,0,0,152.192-112.739c9.995-11.738,19.311-24.02,28.966-36.03l.084-.021a406.521,406.521,0,0,1,217.98-26.824c-12.595,10.7-29.965,16.782-46.685,19.462-24.911,3.977-50.891,2.746-74.889,10.623-63.33,20.684-92.588,96.068-151.289,127.428-23.438,12.5-50.052,17.181-76.245,21.757C-890.405,1146.917-910.093,1150.27-929.758,1153.708Z" fill="#0a53df" opacity="0.304"/>
    </g>
    <circle id="ellipse-2" data-name="ellipse" cx="29" cy="29" r="29" transform="translate(266.615 2007)" fill="url(#linear-gradient)"/>
    <g id="planet" transform="translate(893.167 1166.938) rotate(180)">
      <path id="Path_131-2" data-name="Path 131" d="M-228.833,1166.937a402.067,402.067,0,0,0-32.251-48.683l-.025-.1a403.79,403.79,0,0,0-118.476-103.795c-11.475-6.632-23.424-12.735-35.656-18.357a407.824,407.824,0,0,0-106.375-31.778l-.095.024a406.971,406.971,0,0,0-218.02,26.79l-.095.024a402.213,402.213,0,0,0-160.86,121.272c-7.111,8.759-13.788,18.019-20.2,27.517-3.1,4.568-5.984,9.183-8.844,13.894q-4.007,6.481-7.776,13.188Z" fill="url(#linear-gradient)"/>
      <path id="Path_132-2" data-name="Path 132" d="M-524.272,1166.937c3.6-5.414,7.136-10.887,10.846-16.169,12.481-17.77,29.711-34.873,51.373-36.127,19.26-1.176,36.629,10.538,53.351,20.082,39.22,22.366,91.5,34.094,127.272,6.742a81.823,81.823,0,0,0,20.327-23.2l-.021-.084a402.839,402.839,0,0,0-118.49-103.828c-16.688,10.133-37.917,13.073-57.844,12.353-25.177-.9-50.116-6.8-75.41-6.411-25.211.369-52.244,8.307-66.983,28.814-14.343,19.956-14.088,47.126-25.657,68.8-17.77,33.151-58.978,45.992-96.514,47.282-37.515,1.374-75.552-5.566-112.416,1.483-.445.086-.89.18-1.335.27Z" fill="#1a60e3" opacity="0.403"/>
      <path id="Path_133-2" data-name="Path 133" d="M-929.758,1153.708q4.251-7.026,8.82-13.863a422.664,422.664,0,0,0,152.192-112.739c9.995-11.738,19.311-24.02,28.966-36.03l.084-.021a406.521,406.521,0,0,1,217.98-26.824c-12.595,10.7-29.965,16.782-46.685,19.462-24.911,3.977-50.891,2.746-74.889,10.623-63.33,20.684-92.588,96.068-151.289,127.428-23.438,12.5-50.052,17.181-76.245,21.757C-890.405,1146.917-910.093,1150.27-929.758,1153.708Z" fill="#0a53df" opacity="0.304"/>
    </g>
    <rect id="Rectangle_572" data-name="Rectangle 572" width="233" height="263" transform="translate(1687 267)" fill="none"/>
  </g>
</svg>
